<?xml version="1.0" encoding="utf-8"?>
<svg version="1.1" width="50px" height="50px" xmlns:xlink="http://www.w3.org/1999/xlink" xmlns="http://www.w3.org/2000/svg">
  <g transform="translate(-265 -342 )">
    <path d="M 25.9486607142857 23.7583705357143  C 26.3020833333333 24.0652901785714  26.4787946428571 24.4512648809524  26.4787946428571 24.9162946428571  C 26.4787946428571 25.3999255952381  26.3253348214286 25.8184523809524  26.0184151785714 26.171875  C 25.7114955357143 26.5252976190476  25.3255208333333 26.7020089285714  24.8604910714286 26.7020089285714  C 24.3768601190476 26.7020089285714  23.9583333333333 26.5485491071429  23.6049107142857 26.2416294642857  C 23.2514880952381 25.9347098214286  23.0747767857143 25.5487351190476  23.0747767857143 25.0837053571429  C 23.0747767857143 24.6000744047619  23.2328869047619 24.1815476190476  23.5491071428571 23.828125  C 23.8653273809524 23.4747023809524  24.2559523809524 23.2979910714286  24.7209821428571 23.2979910714286  C 25.1860119047619 23.2979910714286  25.5952380952381 23.4514508928571  25.9486607142857 23.7583705357143  Z M 25.5022321428571 27.9436383928571  C 26.3764880952381 27.0972842261905  26.8415178571429 26.6276041666667  26.8973214285714 26.5345982142857  L 36.6629464285714 10.3236607142857  C 36.4955357142857 10.4724702380952  35.8677455357143 11.0537574404762  34.7795758928571 12.0675223214286  C 33.69140625 13.0812872023809  32.5241815476191 14.164806547619  31.2779017857143 15.3180803571429  C 30.0316220238095 16.4713541666667  28.7620907738095 17.6525297619048  27.4693080357143 18.8616071428571  C 26.1765252976191 20.0706845238095  25.0883556547619 21.098400297619  24.2047991071429 21.9447544642857  C 23.3212425595238 22.7911086309524  22.8515625 23.2700892857143  22.7957589285714 23.3816964285714  L 13.0580357142857 39.5647321428571  C 13.188244047619 39.4345238095238  13.8113839285714 38.8578869047619  14.9274553571429 37.8348214285714  C 16.0435267857143 36.811755952381  17.2154017857143 35.7282366071429  18.4430803571429 34.5842633928571  C 19.6707589285714 33.4402901785714  20.9356398809524 32.2591145833333  22.2377232142857 31.0407366071429  C 23.5398065476191 29.8223586309524  24.6279761904762 28.7899925595238  25.5022321428571 27.9436383928571  Z M 44.5591517857143 21.09375  C 44.819568452381 22.4330357142857  44.9497767857143 23.735119047619  44.9497767857143 25  C 44.9497767857143 28.7388392857143  43.9825148809524 32.1893601190476  42.0479910714286 35.3515625  C 41.9921875 35.3143601190476  41.8340773809524 35.2120535714286  41.5736607142857 35.0446428571429  C 41.3132440476191 34.8772321428571  41.0667782738095 34.7237723214286  40.8342633928571 34.5842633928571  C 40.6017485119048 34.4447544642857  40.4482886904762 34.375  40.3738839285714 34.375  C 40.132068452381 34.375  40.0111607142857 34.4959077380952  40.0111607142857 34.7377232142857  C 40.0111607142857 34.9237351190476  40.5598958333333 35.3329613095238  41.6573660714286 35.9654017857143  C 40.2808779761905 38.0487351190476  38.5649181547619 39.8204985119048  36.5094866071429 41.2806919642857  C 34.4540550595238 42.7408854166667  32.2079613095238 43.7686011904762  29.7712053571429 44.3638392857143  L 29.3247767857143 42.4944196428571  C 29.3061755952381 42.3084077380952  29.1666666666667 42.2154017857143  28.90625 42.2154017857143  C 28.8132440476191 42.2154017857143  28.7388392857143 42.2665550595238  28.6830357142857 42.3688616071429  C 28.6272321428571 42.4711681547619  28.608630952381 42.5595238095238  28.6272321428571 42.6339285714286  L 29.0736607142857 44.53125  C 27.734375 44.8102678571429  26.3764880952381 44.9497767857143  25 44.9497767857143  C 21.2983630952381 44.9497767857143  17.8385416666667 43.9732142857143  14.6205357142857 42.0200892857143  C 14.6391369047619 41.9828869047619  14.7600446428571 41.792224702381  14.9832589285714 41.4481026785714  C 15.2064732142857 41.1039806547619  15.4064360119048 40.7924107142857  15.5831473214286 40.5133928571429  C 15.7598586309524 40.234375  15.8482142857143 40.0576636904762  15.8482142857143 39.9832589285714  C 15.8482142857143 39.741443452381  15.727306547619 39.6205357142857  15.4854910714286 39.6205357142857  C 15.3738839285714 39.6205357142857  15.2157738095238 39.7553943452381  15.0111607142857 40.0251116071429  C 14.8065476190476 40.2948288690476  14.5972842261905 40.6156994047619  14.3833705357143 40.9877232142857  C 14.1694568452381 41.3597470238095  14.0438988095238 41.5736607142857  14.0066964285714 41.6294642857143  C 11.9047619047619 40.234375  10.1190476190476 38.4905133928571  8.64955357142857 36.3978794642857  C 7.18005952380952 34.3052455357143  6.15699404761905 32.03125  5.58035714285714 29.5758928571429  L 7.50558035714286 29.1573660714286  C 7.69159226190476 29.1015625  7.78459821428571 28.9620535714286  7.78459821428571 28.7388392857143  C 7.78459821428571 28.6458333333333  7.73344494047619 28.5714285714286  7.63113839285714 28.515625  C 7.5288318452381 28.4598214285714  7.4311755952381 28.4412202380952  7.33816964285714 28.4598214285714  L 5.44084821428571 28.8783482142857  C 5.18043154761905 27.5390625  5.05022321428571 26.2462797619048  5.05022321428571 25  C 5.05022321428571 21.1681547619048  6.06398809523809 17.6432291666667  8.09151785714286 14.4252232142857  C 8.12872023809524 14.4438244047619  8.30078125 14.555431547619  8.60770089285714 14.7600446428571  C 8.91462053571429 14.9646577380952  9.19363839285714 15.141369047619  9.44475446428571 15.2901785714286  C 9.69587053571429 15.4389880952381  9.85863095238095 15.5133928571429  9.93303571428571 15.5133928571429  C 10.1748511904762 15.5133928571429  10.2957589285714 15.4017857142857  10.2957589285714 15.1785714285714  C 10.2957589285714 15.0669642857143  10.1795014880952 14.9228050595238  9.94698660714286 14.74609375  C 9.71447172619048 14.5693824404762  9.41220238095238 14.3694196428571  9.04017857142857 14.1462053571429  L 8.48214285714286 13.8113839285714  C 9.91443452380953 11.7280505952381  11.6722470238095 9.97023809523809  13.7555803571429 8.53794642857143  C 15.8389136904762 7.10565476190476  18.1082589285714 6.11049107142857  20.5636160714286 5.55245535714286  L 20.9821428571429 7.421875  C 21.0193452380952 7.6078869047619  21.1588541666667 7.70089285714286  21.4006696428571 7.70089285714286  C 21.4936755952381 7.70089285714286  21.5680803571429 7.64973958333333  21.6238839285714 7.54743303571428  C 21.6796875 7.44512648809524  21.6982886904762 7.34747023809524  21.6796875 7.25446428571428  L 21.2611607142857 5.41294642857143  C 22.5818452380952 5.17113095238095  23.828125 5.05022321428572  25 5.05022321428572  C 28.7946428571429 5.05022321428572  32.319568452381 6.06398809523809  35.5747767857143 8.09151785714285  C 34.8493303571429 9.13318452380952  34.4866071428571 9.73772321428572  34.4866071428571 9.90513392857143  C 34.4866071428571 10.1469494047619  34.5982142857143 10.2678571428571  34.8214285714286 10.2678571428571  C 35.0260416666667 10.2678571428571  35.4724702380952 9.67261904761904  36.1607142857143 8.48214285714285  C 38.2254464285714 9.87723214285715  39.9693080357143 11.6071428571429  41.3922991071429 13.671875  C 42.8152901785714 15.7366071428571  43.8151041666667 17.9780505952381  44.3917410714286 20.3962053571429  L 42.8292410714286 20.7310267857143  C 42.6432291666667 20.7682291666667  42.5502232142857 20.9170386904762  42.5502232142857 21.1774553571429  C 42.5502232142857 21.2704613095238  42.6013764880952 21.3448660714286  42.7036830357143 21.4006696428571  C 42.8059895833333 21.4564732142857  42.8943452380952 21.4750744047619  42.96875 21.4564732142857  L 44.5591517857143 21.09375  Z M 45.5496651785714 33.6774553571429  C 46.7308407738095 30.9244791666667  47.3214285714286 28.031994047619  47.3214285714286 25  C 47.3214285714286 21.9680059523809  46.7308407738095 19.0755208333333  45.5496651785714 16.3225446428571  C 44.3684895833333 13.5695684523809  42.7827380952381 11.1979166666667  40.7924107142857 9.20758928571428  C 38.8020833333333 7.2172619047619  36.4304315476191 5.63151041666666  33.6774553571429 4.45033482142857  C 30.9244791666667 3.26915922619047  28.0319940476191 2.67857142857143  25 2.67857142857143  C 21.968005952381 2.67857142857143  19.0755208333333 3.26915922619047  16.3225446428571 4.45033482142857  C 13.569568452381 5.63151041666666  11.1979166666667 7.2172619047619  9.20758928571429 9.20758928571428  C 7.21726190476191 11.1979166666667  5.63151041666667 13.5695684523809  4.45033482142857 16.3225446428571  C 3.26915922619048 19.0755208333333  2.67857142857143 21.9680059523809  2.67857142857143 25  C 2.67857142857143 28.031994047619  3.26915922619048 30.9244791666667  4.45033482142857 33.6774553571429  C 5.63151041666667 36.430431547619  7.21726190476191 38.8020833333333  9.20758928571429 40.7924107142857  C 11.1979166666667 42.7827380952381  13.569568452381 44.3684895833333  16.3225446428571 45.5496651785714  C 19.0755208333333 46.7308407738095  21.968005952381 47.3214285714286  25 47.3214285714286  C 28.0319940476191 47.3214285714286  30.9244791666667 46.7308407738095  33.6774553571429 45.5496651785714  C 36.4304315476191 44.3684895833333  38.8020833333333 42.7827380952381  40.7924107142857 40.7924107142857  C 42.7827380952381 38.8020833333333  44.3684895833333 36.430431547619  45.5496651785714 33.6774553571429  Z M 48.0189732142857 15.2901785714286  C 49.3396577380952 18.3779761904762  50 21.6145833333333  50 25  C 50 28.3854166666667  49.3396577380952 31.6220238095238  48.0189732142857 34.7098214285714  C 46.6982886904762 37.797619047619  44.921875 40.4575892857143  42.6897321428571 42.6897321428571  C 40.4575892857143 44.921875  37.7976190476191 46.6982886904762  34.7098214285714 48.0189732142857  C 31.6220238095238 49.3396577380952  28.3854166666667 50  25 50  C 21.6145833333333 50  18.3779761904762 49.3396577380952  15.2901785714286 48.0189732142857  C 12.202380952381 46.6982886904762  9.54241071428571 44.921875  7.31026785714286 42.6897321428571  C 5.078125 40.4575892857143  3.30171130952381 37.797619047619  1.98102678571429 34.7098214285714  C 0.660342261904762 31.6220238095238  0 28.3854166666667  0 25  C 0 21.6145833333333  0.660342261904762 18.3779761904762  1.98102678571429 15.2901785714286  C 3.30171130952381 12.2023809523809  5.078125 9.54241071428572  7.31026785714286 7.31026785714286  C 9.54241071428571 5.078125  12.202380952381 3.30171130952381  15.2901785714286 1.98102678571428  C 18.3779761904762 0.660342261904762  21.6145833333333 0  25 0  C 28.3854166666667 0  31.6220238095238 0.660342261904762  34.7098214285714 1.98102678571428  C 37.7976190476191 3.30171130952381  40.4575892857143 5.078125  42.6897321428571 7.31026785714286  C 44.921875 9.54241071428572  46.6982886904762 12.2023809523809  48.0189732142857 15.2901785714286  Z " fill-rule="nonzero" fill="#000000" stroke="none" transform="matrix(1 0 0 1 265 342 )" />
  </g>
</svg>