<?xml version="1.0" encoding="utf-8"?>
<svg version="1.1" width="39px" height="28px" xmlns:xlink="http://www.w3.org/1999/xlink" xmlns="http://www.w3.org/2000/svg">
  <defs>
    <mask fill="white" id="clip33">
      <path d="M 24.1813829787234 26.8761128715859  C 22.8299968118362 27.5675281375436  21.4354424048472 28.0094676412531  19.568221574344 27.9602836879433  C 19.5199134340432 27.9620406670413  19.4719207945709 27.9634758851484  19.424236487393 27.9645933056981  C 17.5607535544487 28.0082616369933  16.1681600056809 27.5665851025046  14.8186170212766 26.8761128715859  C 14.0020529465997 26.4583308336325  12.8514573205323 25.5092126311052  11.8797872340426 24.9043810673507  C 11.2725566113124 24.4764007336486  10.081914893617 23.7776771792163  10.081914893617 23.7776771792163  C 10.081914893617 23.7776771792163  8.76923268965026 23.2192323718414  7.73085106382979 23.0382777526281  C 6.61409084567863 22.8436644091299  3.58191489361703 22.7566017805945  3.58191489361703 22.7566017805945  C 3.58191489361703 22.7566017805945  0.573936170212766 22.2636688295357  0.15904255319149 19.6933755847292  C -0.255851063829786 17.1230823399226  1.7840425531915 16.1724259343091  1.7840425531915 16.1724259343091  C 1.7840425531915 16.1724259343091  0.470212765957462 14.0246466475529  1.36914893617022 12.3345908153513  C 2.26808510638298 10.6445349831497  3.58191489361703 10.7149539761581  3.58191489361703 10.7149539761581  C 3.58191489361703 10.7149539761581  3.30874635568513 8.55927051671733  4.38892128279883 7.57504704009263  C 5.46909620991253 6.59082356346793  6.68571428571428 6.92198581560284  6.68571428571428 6.92198581560284  C 6.68571428571428 6.92198581560284  6.77667638483964 5.43291359096829  8.08425655976676 4.27500361846866  C 9.39183673469388 3.11709364596902  11.2110787172012 3.86973512809379  11.2110787172012 3.86973512809379  C 11.2110787172012 3.86973512809379  11.3247813411079 2.2486611665943  13.3714285714286 1.43812418584455  C 15.4180758017493 0.627587205094804  16.6119533527697 1.95918367346939  16.6119533527697 1.95918367346939  C 16.6119533527697 1.95918367346939  17.665990489281 0.0948632436563537  19.5000630784245 0.105280787126054  C 21.3340578467338 0.0949487376268967  22.3880466472303 1.95918367346939  22.3880466472303 1.95918367346939  C 22.3880466472303 1.95918367346939  23.5819241982507 0.627587205094804  25.6285714285714 1.43812418584455  C 27.6752186588921 2.2486611665943  27.7889212827988 3.86973512809379  27.7889212827988 3.86973512809379  C 27.7889212827988 3.86973512809379  29.6081632653061 3.11709364596902  30.9157434402333 4.27500361846866  C 32.2233236151604 5.43291359096829  32.3142857142857 6.92198581560284  32.3142857142857 6.92198581560284  C 32.3142857142857 6.92198581560284  33.5309037900875 6.59082356346793  34.6110787172012 7.57504704009263  C 35.6912536443149 8.55927051671733  35.418085106383 10.7149539761581  35.418085106383 10.7149539761581  C 35.418085106383 10.7149539761581  36.731914893617 10.6445349831497  37.6308510638298 12.3345908153513  C 38.5297872340425 14.0246466475529  37.2159574468085 16.1724259343091  37.2159574468085 16.1724259343091  C 37.2159574468085 16.1724259343091  39.2558510638298 17.1230823399226  38.8409574468085 19.6933755847292  C 38.4260638297872 22.2636688295357  35.418085106383 22.7566017805945  35.418085106383 22.7566017805945  C 35.418085106383 22.7566017805945  32.3859091543214 22.8436644091299  31.2691489361702 23.0382777526281  C 30.2307673103497 23.2192323718414  28.918085106383 23.7776771792163  28.918085106383 23.7776771792163  C 28.918085106383 23.7776771792163  27.7274433886876 24.4764007336486  27.1202127659574 24.9043810673507  C 26.1485426794677 25.5092126311052  24.9979470534003 26.4583308336325  24.1813829787234 26.8761128715859  Z " fill-rule="evenodd" />
    </mask>
  </defs>
  <g transform="translate(-907 -166 )">
    <path d="M 24.1813829787234 26.8761128715859  C 22.8299968118362 27.5675281375436  21.4354424048472 28.0094676412531  19.568221574344 27.9602836879433  C 19.5199134340432 27.9620406670413  19.4719207945709 27.9634758851484  19.424236487393 27.9645933056981  C 17.5607535544487 28.0082616369933  16.1681600056809 27.5665851025046  14.8186170212766 26.8761128715859  C 14.0020529465997 26.4583308336325  12.8514573205323 25.5092126311052  11.8797872340426 24.9043810673507  C 11.2725566113124 24.4764007336486  10.081914893617 23.7776771792163  10.081914893617 23.7776771792163  C 10.081914893617 23.7776771792163  8.76923268965026 23.2192323718414  7.73085106382979 23.0382777526281  C 6.61409084567863 22.8436644091299  3.58191489361703 22.7566017805945  3.58191489361703 22.7566017805945  C 3.58191489361703 22.7566017805945  0.573936170212766 22.2636688295357  0.15904255319149 19.6933755847292  C -0.255851063829786 17.1230823399226  1.7840425531915 16.1724259343091  1.7840425531915 16.1724259343091  C 1.7840425531915 16.1724259343091  0.470212765957462 14.0246466475529  1.36914893617022 12.3345908153513  C 2.26808510638298 10.6445349831497  3.58191489361703 10.7149539761581  3.58191489361703 10.7149539761581  C 3.58191489361703 10.7149539761581  3.30874635568513 8.55927051671733  4.38892128279883 7.57504704009263  C 5.46909620991253 6.59082356346793  6.68571428571428 6.92198581560284  6.68571428571428 6.92198581560284  C 6.68571428571428 6.92198581560284  6.77667638483964 5.43291359096829  8.08425655976676 4.27500361846866  C 9.39183673469388 3.11709364596902  11.2110787172012 3.86973512809379  11.2110787172012 3.86973512809379  C 11.2110787172012 3.86973512809379  11.3247813411079 2.2486611665943  13.3714285714286 1.43812418584455  C 15.4180758017493 0.627587205094804  16.6119533527697 1.95918367346939  16.6119533527697 1.95918367346939  C 16.6119533527697 1.95918367346939  17.665990489281 0.0948632436563537  19.5000630784245 0.105280787126054  C 21.3340578467338 0.0949487376268967  22.3880466472303 1.95918367346939  22.3880466472303 1.95918367346939  C 22.3880466472303 1.95918367346939  23.5819241982507 0.627587205094804  25.6285714285714 1.43812418584455  C 27.6752186588921 2.2486611665943  27.7889212827988 3.86973512809379  27.7889212827988 3.86973512809379  C 27.7889212827988 3.86973512809379  29.6081632653061 3.11709364596902  30.9157434402333 4.27500361846866  C 32.2233236151604 5.43291359096829  32.3142857142857 6.92198581560284  32.3142857142857 6.92198581560284  C 32.3142857142857 6.92198581560284  33.5309037900875 6.59082356346793  34.6110787172012 7.57504704009263  C 35.6912536443149 8.55927051671733  35.418085106383 10.7149539761581  35.418085106383 10.7149539761581  C 35.418085106383 10.7149539761581  36.731914893617 10.6445349831497  37.6308510638298 12.3345908153513  C 38.5297872340425 14.0246466475529  37.2159574468085 16.1724259343091  37.2159574468085 16.1724259343091  C 37.2159574468085 16.1724259343091  39.2558510638298 17.1230823399226  38.8409574468085 19.6933755847292  C 38.4260638297872 22.2636688295357  35.418085106383 22.7566017805945  35.418085106383 22.7566017805945  C 35.418085106383 22.7566017805945  32.3859091543214 22.8436644091299  31.2691489361702 23.0382777526281  C 30.2307673103497 23.2192323718414  28.918085106383 23.7776771792163  28.918085106383 23.7776771792163  C 28.918085106383 23.7776771792163  27.7274433886876 24.4764007336486  27.1202127659574 24.9043810673507  C 26.1485426794677 25.5092126311052  24.9979470534003 26.4583308336325  24.1813829787234 26.8761128715859  Z " fill-rule="nonzero" fill="#ffffff" stroke="none" fill-opacity="0" transform="matrix(1 0 0 1 907 166 )" />
    <path d="M 24.1813829787234 26.8761128715859  C 22.8299968118362 27.5675281375436  21.4354424048472 28.0094676412531  19.568221574344 27.9602836879433  C 19.5199134340432 27.9620406670413  19.4719207945709 27.9634758851484  19.424236487393 27.9645933056981  C 17.5607535544487 28.0082616369933  16.1681600056809 27.5665851025046  14.8186170212766 26.8761128715859  C 14.0020529465997 26.4583308336325  12.8514573205323 25.5092126311052  11.8797872340426 24.9043810673507  C 11.2725566113124 24.4764007336486  10.081914893617 23.7776771792163  10.081914893617 23.7776771792163  C 10.081914893617 23.7776771792163  8.76923268965026 23.2192323718414  7.73085106382979 23.0382777526281  C 6.61409084567863 22.8436644091299  3.58191489361703 22.7566017805945  3.58191489361703 22.7566017805945  C 3.58191489361703 22.7566017805945  0.573936170212766 22.2636688295357  0.15904255319149 19.6933755847292  C -0.255851063829786 17.1230823399226  1.7840425531915 16.1724259343091  1.7840425531915 16.1724259343091  C 1.7840425531915 16.1724259343091  0.470212765957462 14.0246466475529  1.36914893617022 12.3345908153513  C 2.26808510638298 10.6445349831497  3.58191489361703 10.7149539761581  3.58191489361703 10.7149539761581  C 3.58191489361703 10.7149539761581  3.30874635568513 8.55927051671733  4.38892128279883 7.57504704009263  C 5.46909620991253 6.59082356346793  6.68571428571428 6.92198581560284  6.68571428571428 6.92198581560284  C 6.68571428571428 6.92198581560284  6.77667638483964 5.43291359096829  8.08425655976676 4.27500361846866  C 9.39183673469388 3.11709364596902  11.2110787172012 3.86973512809379  11.2110787172012 3.86973512809379  C 11.2110787172012 3.86973512809379  11.3247813411079 2.2486611665943  13.3714285714286 1.43812418584455  C 15.4180758017493 0.627587205094804  16.6119533527697 1.95918367346939  16.6119533527697 1.95918367346939  C 16.6119533527697 1.95918367346939  17.665990489281 0.0948632436563537  19.5000630784245 0.105280787126054  C 21.3340578467338 0.0949487376268967  22.3880466472303 1.95918367346939  22.3880466472303 1.95918367346939  C 22.3880466472303 1.95918367346939  23.5819241982507 0.627587205094804  25.6285714285714 1.43812418584455  C 27.6752186588921 2.2486611665943  27.7889212827988 3.86973512809379  27.7889212827988 3.86973512809379  C 27.7889212827988 3.86973512809379  29.6081632653061 3.11709364596902  30.9157434402333 4.27500361846866  C 32.2233236151604 5.43291359096829  32.3142857142857 6.92198581560284  32.3142857142857 6.92198581560284  C 32.3142857142857 6.92198581560284  33.5309037900875 6.59082356346793  34.6110787172012 7.57504704009263  C 35.6912536443149 8.55927051671733  35.418085106383 10.7149539761581  35.418085106383 10.7149539761581  C 35.418085106383 10.7149539761581  36.731914893617 10.6445349831497  37.6308510638298 12.3345908153513  C 38.5297872340425 14.0246466475529  37.2159574468085 16.1724259343091  37.2159574468085 16.1724259343091  C 37.2159574468085 16.1724259343091  39.2558510638298 17.1230823399226  38.8409574468085 19.6933755847292  C 38.4260638297872 22.2636688295357  35.418085106383 22.7566017805945  35.418085106383 22.7566017805945  C 35.418085106383 22.7566017805945  32.3859091543214 22.8436644091299  31.2691489361702 23.0382777526281  C 30.2307673103497 23.2192323718414  28.918085106383 23.7776771792163  28.918085106383 23.7776771792163  C 28.918085106383 23.7776771792163  27.7274433886876 24.4764007336486  27.1202127659574 24.9043810673507  C 26.1485426794677 25.5092126311052  24.9979470534003 26.4583308336325  24.1813829787234 26.8761128715859  Z " stroke-width="2" stroke="#6b6b6b" fill="none" transform="matrix(1 0 0 1 907 166 )" mask="url(#clip33)" />
  </g>
</svg>