<?xml version="1.0" encoding="utf-8"?>
<svg version="1.1" width="14px" height="14px" xmlns:xlink="http://www.w3.org/1999/xlink" xmlns="http://www.w3.org/2000/svg">
  <defs>
    <mask fill="white" id="clip34">
      <path d="M 9.32605228486235 0.426607209215901  L 10.539560363359 1.01780345258606  C 10.539560363359 1.01780345258606  11.3958997939548 1.63884478823626  11.607447472436 1.84547819330429  C 11.8994085658847 2.1306570017876  12.6267942583732 2.91965811965812  12.6267942583732 2.91965811965812  C 12.6267942583732 2.91965811965812  11.1948547257472 1.94006959224351  10.3211289092296 1.58535184622141  C 9.44740309271202 1.23063410019931  8.7776524370714 1.00817171766637  8.50086679148465 1.01780345258606  C 7.82130226752652 1.04145130232087  7.33589903612787 0.923212053646839  6.63206435059983 1.01780345258606  C 5.92822966507178 1.11239485152528  5.45268878044469 1.2371627527555  4.69045142500521 1.58535184622141  C 2.86928777514654 2.41725717829707  2.21052631578947 3.97264957264957  2.21052631578947 3.97264957264957  C 2.21052631578947 3.97264957264957  1.44912280701755 5.12136752136752  1.49824561403509 6.74871794871795  C 1.54736842105263 8.37606837606837  2.53040704528119 9.71623931623931  2.53040704528119 9.71623931623931  C 2.53040704528119 9.71623931623931  3.61052631578948 11.8222222222222  7.04912280701755 11.8700854700855  C 10.4877192982456 11.9179487179487  11.3319789061451 10.2613205745926  11.607447472436 9.84726574345497  C 11.8829160387269 9.43321091231735  12.3559028978491 8.52646652515247  12.234871014593 6.94622460325484  C 12.1138391313369 5.3659826813572  11.4602669617539 4.49331176926446  10.8315789473684 3.97264957264957  C 10.2028909329829 3.45198737603469  9.54796320630749 3.07816974965463  7.98245614035088 2.91965811965812  C 6.41694907439427 2.7611464896616  4.88771929824561 3.68547008547008  4.88771929824561 3.68547008547008  C 4.88771929824561 3.68547008547008  5.39428611053327 2.93327928110538  6.3165522501907 2.62585723455289  C 7.23881838984814 2.31843518800041  7.91838291380625 2.12925239012196  8.79210873032383 2.20019593932638  C 9.66583454684142 2.27113948853079  10.2725885860897 2.41302658693963  11.0977740794674 2.76774433296173  C 11.9229595728452 3.12246207898383  12.6267942583732 3.97264957264957  12.6267942583732 3.97264957264957  C 12.6267942583732 3.97264957264957  13.3736842105263 4.64871794871794  13.6868421052632 5.95897435897436  C 14 7.26923076923077  13.9447368421053 8.59743589743589  13.6868421052632 9.35128205128207  C 13.4289473684211 10.1051282051282  12.8188250728207 11.3163996574428  11.4210526315789 12.4160670247627  C 10.0233878673435 13.5156496795167  8.73157894736842 13.7846153846154  7.7242216212468 13.8205128205128  C 6.71686429512518 13.8564102564103  4.84473684210526 13.7846153846154  2.67602801470079 12.2268842268842  C 0.507319187296305 10.6691530691531  0.221052631578945 9.26153846153847  0.110526315789473 8.18461538461539  C 0 7.10769230769231  0.103390888287917 5.43995135299482  0.710144927536233 4.16296746731529  C 1.31689896678455 2.88598358163576  1.67631578947368 2.62051282051282  2.11842105263158 2.20019593932638  C 2.56052631578947 1.77987905813994  2.87018930726024 1.56170399648662  3.59829415435823 1.1596905509949  C 4.32639900145621 0.757677105503187  5.17585465640387 0.402959359481101  5.73406837251232 0.308367960541869  C 6.29228208862076 0.213776561602648  7.38894750874456 0.149638395560341  7.91838291380626 0.179487179487179  C 8.6511486098832 0.22079942404448  9.32605228486235 0.426607209215901  9.32605228486235 0.426607209215901  Z " fill-rule="evenodd" />
    </mask>
  </defs>
  <g transform="translate(-913 -174 )">
    <path d="M 9.32605228486235 0.426607209215901  L 10.539560363359 1.01780345258606  C 10.539560363359 1.01780345258606  11.3958997939548 1.63884478823626  11.607447472436 1.84547819330429  C 11.8994085658847 2.1306570017876  12.6267942583732 2.91965811965812  12.6267942583732 2.91965811965812  C 12.6267942583732 2.91965811965812  11.1948547257472 1.94006959224351  10.3211289092296 1.58535184622141  C 9.44740309271202 1.23063410019931  8.7776524370714 1.00817171766637  8.50086679148465 1.01780345258606  C 7.82130226752652 1.04145130232087  7.33589903612787 0.923212053646839  6.63206435059983 1.01780345258606  C 5.92822966507178 1.11239485152528  5.45268878044469 1.2371627527555  4.69045142500521 1.58535184622141  C 2.86928777514654 2.41725717829707  2.21052631578947 3.97264957264957  2.21052631578947 3.97264957264957  C 2.21052631578947 3.97264957264957  1.44912280701755 5.12136752136752  1.49824561403509 6.74871794871795  C 1.54736842105263 8.37606837606837  2.53040704528119 9.71623931623931  2.53040704528119 9.71623931623931  C 2.53040704528119 9.71623931623931  3.61052631578948 11.8222222222222  7.04912280701755 11.8700854700855  C 10.4877192982456 11.9179487179487  11.3319789061451 10.2613205745926  11.607447472436 9.84726574345497  C 11.8829160387269 9.43321091231735  12.3559028978491 8.52646652515247  12.234871014593 6.94622460325484  C 12.1138391313369 5.3659826813572  11.4602669617539 4.49331176926446  10.8315789473684 3.97264957264957  C 10.2028909329829 3.45198737603469  9.54796320630749 3.07816974965463  7.98245614035088 2.91965811965812  C 6.41694907439427 2.7611464896616  4.88771929824561 3.68547008547008  4.88771929824561 3.68547008547008  C 4.88771929824561 3.68547008547008  5.39428611053327 2.93327928110538  6.3165522501907 2.62585723455289  C 7.23881838984814 2.31843518800041  7.91838291380625 2.12925239012196  8.79210873032383 2.20019593932638  C 9.66583454684142 2.27113948853079  10.2725885860897 2.41302658693963  11.0977740794674 2.76774433296173  C 11.9229595728452 3.12246207898383  12.6267942583732 3.97264957264957  12.6267942583732 3.97264957264957  C 12.6267942583732 3.97264957264957  13.3736842105263 4.64871794871794  13.6868421052632 5.95897435897436  C 14 7.26923076923077  13.9447368421053 8.59743589743589  13.6868421052632 9.35128205128207  C 13.4289473684211 10.1051282051282  12.8188250728207 11.3163996574428  11.4210526315789 12.4160670247627  C 10.0233878673435 13.5156496795167  8.73157894736842 13.7846153846154  7.7242216212468 13.8205128205128  C 6.71686429512518 13.8564102564103  4.84473684210526 13.7846153846154  2.67602801470079 12.2268842268842  C 0.507319187296305 10.6691530691531  0.221052631578945 9.26153846153847  0.110526315789473 8.18461538461539  C 0 7.10769230769231  0.103390888287917 5.43995135299482  0.710144927536233 4.16296746731529  C 1.31689896678455 2.88598358163576  1.67631578947368 2.62051282051282  2.11842105263158 2.20019593932638  C 2.56052631578947 1.77987905813994  2.87018930726024 1.56170399648662  3.59829415435823 1.1596905509949  C 4.32639900145621 0.757677105503187  5.17585465640387 0.402959359481101  5.73406837251232 0.308367960541869  C 6.29228208862076 0.213776561602648  7.38894750874456 0.149638395560341  7.91838291380626 0.179487179487179  C 8.6511486098832 0.22079942404448  9.32605228486235 0.426607209215901  9.32605228486235 0.426607209215901  Z " fill-rule="nonzero" fill="#6b6b6b" stroke="none" transform="matrix(1 0 0 1 913 174 )" />
    <path d="M 9.32605228486235 0.426607209215901  L 10.539560363359 1.01780345258606  C 10.539560363359 1.01780345258606  11.3958997939548 1.63884478823626  11.607447472436 1.84547819330429  C 11.8994085658847 2.1306570017876  12.6267942583732 2.91965811965812  12.6267942583732 2.91965811965812  C 12.6267942583732 2.91965811965812  11.1948547257472 1.94006959224351  10.3211289092296 1.58535184622141  C 9.44740309271202 1.23063410019931  8.7776524370714 1.00817171766637  8.50086679148465 1.01780345258606  C 7.82130226752652 1.04145130232087  7.33589903612787 0.923212053646839  6.63206435059983 1.01780345258606  C 5.92822966507178 1.11239485152528  5.45268878044469 1.2371627527555  4.69045142500521 1.58535184622141  C 2.86928777514654 2.41725717829707  2.21052631578947 3.97264957264957  2.21052631578947 3.97264957264957  C 2.21052631578947 3.97264957264957  1.44912280701755 5.12136752136752  1.49824561403509 6.74871794871795  C 1.54736842105263 8.37606837606837  2.53040704528119 9.71623931623931  2.53040704528119 9.71623931623931  C 2.53040704528119 9.71623931623931  3.61052631578948 11.8222222222222  7.04912280701755 11.8700854700855  C 10.4877192982456 11.9179487179487  11.3319789061451 10.2613205745926  11.607447472436 9.84726574345497  C 11.8829160387269 9.43321091231735  12.3559028978491 8.52646652515247  12.234871014593 6.94622460325484  C 12.1138391313369 5.3659826813572  11.4602669617539 4.49331176926446  10.8315789473684 3.97264957264957  C 10.2028909329829 3.45198737603469  9.54796320630749 3.07816974965463  7.98245614035088 2.91965811965812  C 6.41694907439427 2.7611464896616  4.88771929824561 3.68547008547008  4.88771929824561 3.68547008547008  C 4.88771929824561 3.68547008547008  5.39428611053327 2.93327928110538  6.3165522501907 2.62585723455289  C 7.23881838984814 2.31843518800041  7.91838291380625 2.12925239012196  8.79210873032383 2.20019593932638  C 9.66583454684142 2.27113948853079  10.2725885860897 2.41302658693963  11.0977740794674 2.76774433296173  C 11.9229595728452 3.12246207898383  12.6267942583732 3.97264957264957  12.6267942583732 3.97264957264957  C 12.6267942583732 3.97264957264957  13.3736842105263 4.64871794871794  13.6868421052632 5.95897435897436  C 14 7.26923076923077  13.9447368421053 8.59743589743589  13.6868421052632 9.35128205128207  C 13.4289473684211 10.1051282051282  12.8188250728207 11.3163996574428  11.4210526315789 12.4160670247627  C 10.0233878673435 13.5156496795167  8.73157894736842 13.7846153846154  7.7242216212468 13.8205128205128  C 6.71686429512518 13.8564102564103  4.84473684210526 13.7846153846154  2.67602801470079 12.2268842268842  C 0.507319187296305 10.6691530691531  0.221052631578945 9.26153846153847  0.110526315789473 8.18461538461539  C 0 7.10769230769231  0.103390888287917 5.43995135299482  0.710144927536233 4.16296746731529  C 1.31689896678455 2.88598358163576  1.67631578947368 2.62051282051282  2.11842105263158 2.20019593932638  C 2.56052631578947 1.77987905813994  2.87018930726024 1.56170399648662  3.59829415435823 1.1596905509949  C 4.32639900145621 0.757677105503187  5.17585465640387 0.402959359481101  5.73406837251232 0.308367960541869  C 6.29228208862076 0.213776561602648  7.38894750874456 0.149638395560341  7.91838291380626 0.179487179487179  C 8.6511486098832 0.22079942404448  9.32605228486235 0.426607209215901  9.32605228486235 0.426607209215901  Z " stroke-width="2" stroke="#6b6b6b" fill="none" transform="matrix(1 0 0 1 913 174 )" mask="url(#clip34)" />
  </g>
</svg>